<svg xmlns="http://www.w3.org/2000/svg" width="16" height="16" fill="none" viewBox="0 0 16 16">
  <style>
    .Icon {
      stroke: black;
    }
  </style>
  <g class="Address search">
    <path stroke="#162A41" stroke-linecap="round" stroke-linejoin="round" d="m13.467 13.467 1.2 1.2m0-6.667A6.667 6.667 0 1 0 8 14.667m5.333-10.868c-.623.045-1.421.286-1.974 1.003-1 1.294-2 1.402-2.666.97-1-.647-.16-1.694-1.333-2.264-.765-.371-.871-1.381-.446-2.175m-5.58 6c.508.442 1.22.846 2.058.846 1.734 0 2.08.33 2.08 1.656 0 1.324 0 1.324.347 2.317.225.647.304 1.293-.145 1.848m8.393-2.633a2.7 2.7 0 1 0-5.4 0 2.7 2.7 0 0 0 5.4 0Z" class="Icon"/>
  </g>
</svg>
