<svg xmlns="http://www.w3.org/2000/svg" width="16" height="16" fill="none" viewBox="0 0 16 16">
  <style>
    .Icon {
      stroke: black;
    }
  </style>
  <g class="Batches">
    <path stroke="#162A41" stroke-linecap="round" stroke-linejoin="round" d="M13.859 7.398a.71.71 0 0 1 .141.423c0 .654-.875 1.053-2.626 1.85l-1.136.518c-1.101.502-1.652.753-2.238.753-.586 0-1.137-.25-2.238-.753l-1.137-.518C2.875 8.874 2 8.475 2 7.821a.71.71 0 0 1 .141-.423m11.444 3.446c.276.22.415.44.415.701 0 .655-.875 1.053-2.626 1.85l-1.136.519c-1.101.502-1.652.753-2.238.753-.586 0-1.137-.251-2.238-.753l-1.137-.518C2.875 12.598 2 12.2 2 11.545c0-.26.139-.48.416-.701m3.346-8.747-1.137.525C2.875 3.432 2 3.836 2 4.5c0 .664.875 1.069 2.625 1.878l1.137.525c1.101.51 1.652.764 2.238.764.586 0 1.137-.255 2.238-.764l1.136-.525C13.124 5.568 14 5.164 14 4.5c0-.664-.875-1.069-2.626-1.878l-1.136-.525C9.137 1.587 8.586 1.333 8 1.333c-.586 0-1.137.255-2.238.764Z" class="Icon"/>
  </g>
</svg>
