<svg xmlns="http://www.w3.org/2000/svg" width="16" height="16" fill="none" viewBox="0 0 16 16">
  <style>
    .Icon {
      stroke: black;
    }
  </style>
  <g class="Batch picking">
    <path stroke="#162A41" stroke-linecap="round" stroke-linejoin="round" d="M14 7.82c0 .556-.63.927-1.889 1.513M2 7.821c0 .555.63.926 1.889 1.512m9.695 1.511c.277.22.416.44.416.701 0 .655-.875 1.053-2.626 1.85l-1.136.519c-1.101.502-1.652.753-2.238.753-.586 0-1.137-.251-2.238-.753l-1.137-.518C2.875 12.598 2 12.2 2 11.545c0-.26.139-.48.416-.701M12.5 5.848c1-.492 1.5-.846 1.5-1.348 0-.664-.875-1.069-2.626-1.878l-1.136-.525C9.137 1.587 8.586 1.333 8 1.333c-.586 0-1.137.255-2.238.764l-1.137.525C2.875 3.432 2 3.836 2 4.5c0 .502.5.856 1.5 1.348m2 2.485L7.063 10 10.5 6" class="Icon"/>
  </g>
</svg>
