<svg xmlns="http://www.w3.org/2000/svg" width="16" height="16" fill="none" viewBox="0 0 16 16">
  <style>
    .Icon {
      stroke: black;
    }
  </style>
  <g class="Best before">
    <path stroke="#162A41" stroke-linecap="round" stroke-linejoin="round" d="M12 1.333v1.334M4 1.333v1.334M2 5.333h12m-8.667 5L7 12l3.667-4m-9 .162c0-2.905 0-4.357.834-5.26C3.336 2 4.68 2 7.367 2h1.266c2.687 0 4.03 0 4.866.902.834.903.834 2.355.834 5.26v.343c0 2.904 0 4.357-.834 5.26-.835.902-2.179.902-4.866.902H7.367c-2.687 0-4.03 0-4.866-.903-.834-.902-.834-2.355-.834-5.26v-.342Z" class="Icon"/>
  </g>
</svg>
