<svg xmlns="http://www.w3.org/2000/svg" width="16" height="16" fill="none" viewBox="0 0 16 16">
  <style>
    .Icon {
      stroke: black;
    }
  </style>
  <g class="Carrier">
    <path stroke="#162A41" stroke-linecap="round" stroke-linejoin="round" d="M10 12a1.333 1.333 0 1 0 2.667 0A1.333 1.333 0 0 0 10 12Zm0 0H6m0 0a1.333 1.333 0 1 1-2.667 0A1.333 1.333 0 0 1 6 12Zm-2.667-.018c-.73-.037-1.187-.146-1.512-.47-.324-.325-.433-.78-.47-1.512m11.316 1.982c.73-.037 1.187-.146 1.511-.47.489-.488.489-1.274.489-2.845V7.333m0 0h-3.134c-.496 0-.744 0-.945-.065a1.333 1.333 0 0 1-.856-.856c-.065-.2-.065-.449-.065-.945 0-.745 0-1.117-.098-1.418a2 2 0 0 0-1.284-1.284c-.302-.098-.674-.098-1.418-.098H1.333m13.334 4.666-.851-1.58c-.46-.854-.69-1.281-1.085-1.517S11.85 4 10.88 4H9.667M1.333 5.333h4m-4 2H4" class="Icon"/>
  </g>
</svg>
