<svg xmlns="http://www.w3.org/2000/svg" width="16" height="16" fill="none" viewBox="0 0 16 16">
  <style>
    .Icon {
      stroke: black;
    }
  </style>
  <g class="Delivery dates">
    <path stroke="#162A41" stroke-linecap="round" stroke-linejoin="round" d="M12 1.333v1.334M4 1.333v1.334M2 5.333h12M10 10H6m4 0c0 .467-1.33 1.339-1.667 1.667M10 10c0-.467-1.33-1.339-1.667-1.667m-6.666-.17c0-2.906 0-4.358.834-5.26C3.336 2 4.68 2 7.367 2h1.266c2.687 0 4.03 0 4.866.902.834.903.834 2.355.834 5.26v.343c0 2.904 0 4.357-.834 5.26-.835.902-2.179.902-4.866.902H7.367c-2.687 0-4.03 0-4.866-.903-.834-.902-.834-2.355-.834-5.26v-.342Z" class="Icon"/>
  </g>
</svg>
