<svg xmlns="http://www.w3.org/2000/svg" width="16" height="16" fill="none" viewBox="0 0 16 16">
  <style>
    .Icon {
      stroke: black;
    }
  </style>
  <g class="Delivery Notes">
    <path stroke="#162A41" stroke-linecap="round" stroke-linejoin="round" d="M11.77 6.492v-2.39c0-1.086 0-1.629-.22-2.044a1.98 1.98 0 0 0-.883-.847C10.235 1 9.669 1 8.538 1H4.231C3.1 1 2.534 1 2.103 1.211a1.98 1.98 0 0 0-.883.847C1 2.473 1 3.016 1 4.102v6.72c0 1.085 0 1.628.22 2.043.194.364.503.661.883.847.431.211.997.211 2.128.211h2.154M3.154 5.427l.994.958L6.385 4.23M3.154 9.735l.994.957L6.385 8.54M8 5.31h1.62m1.072 5.92h2.154M9.616 15h4.307c.595 0 1.077-.482 1.077-1.077V9.616c0-.595-.482-1.077-1.077-1.077H9.615c-.594 0-1.077.482-1.077 1.077v4.307c0 .595.483 1.077 1.077 1.077Z" class="Icon"/>
  </g>
</svg>
