<svg xmlns="http://www.w3.org/2000/svg" width="16" height="16" fill="none" viewBox="0 0 16 16">
  <style>
    .Icon {
      stroke: black;
    }
  </style>
  <g class="Dispatch Center">
    <path stroke="#162A41" stroke-linecap="round" stroke-linejoin="round" d="M2 5.333v3.36c0 2.502 0 3.753.781 4.53C3.562 14 4.819 14 7.333 14h1.334c2.514 0 3.77 0 4.552-.777.781-.777.781-2.028.781-4.53v-3.36M13.465 2H2.535c-.5 0-.75 0-.924.118a.67.67 0 0 0-.207.226c-.102.182-.077.428-.027.92.083.82.124 1.23.342 1.524.108.146.246.269.404.36.317.185.735.185 1.57.185h8.614c.835 0 1.253 0 1.57-.184.158-.092.296-.215.404-.361.218-.294.26-.704.342-1.524.05-.492.075-.738-.027-.92a.67.67 0 0 0-.207-.226C14.216 2 13.966 2 13.465 2ZM6 9.66h4m0 0-1.5 1.5m1.5-1.5-1.5-1.5" class="Icon"/>
  </g>
</svg>
