<svg xmlns="http://www.w3.org/2000/svg" width="16" height="16" fill="none" viewBox="0 0 16 16">
  <style>
    .Icon {
      stroke: black;
    }
  </style>
  <g class="Framework agreement">
    <path stroke="#162A41" stroke-linecap="round" stroke-linejoin="round" d="M7.647 14.667c-2.662 0-3.993 0-4.82-.781C2 13.105 2 11.848 2 9.333V6.667c0-2.514 0-3.772.827-4.553.827-.78 2.158-.78 4.82-.78h.706c2.662 0 3.993 0 4.82.78C14 2.895 14 4.153 14 6.667m-6.333 8h1m-3.334-10h5.334M5.333 8h3.334m3 4.393-.602 2.102a.133.133 0 0 0 .179.157l1.324-.529a.267.267 0 0 1 .198 0l1.336.534a.133.133 0 0 0 .18-.151l-.51-2.179m.895-1.664a1.998 1.998 0 0 0-2-1.996c-1.105 0-2 .894-2 1.996 0 1.103.895 1.997 2 1.997 1.104 0 2-.894 2-1.997Z" class="Icon"/>
  </g>
</svg>
