<svg xmlns="http://www.w3.org/2000/svg" width="16" height="16" fill="none" viewBox="0 0 16 16">
  <style>
    .Icon {
      stroke: black;
    }
  </style>
  <g class="Goods posting document">
    <path stroke="#162A41" stroke-linecap="round" stroke-linejoin="round" d="M13.333 7.333v-.666c0-2.514 0-3.772-.827-4.553-.827-.78-2.158-.78-4.82-.78H6.98c-2.662 0-3.993 0-4.82.78-.827.781-.827 2.039-.827 4.553v2.666c0 2.514 0 3.772.827 4.553.827.78 2.158.78 4.82.78h.353m-2.666-10H10M4.667 8H10m2.085 5.93 1.974-1.974c.179-.18.333-.328.43-.495.241-.42.241-.936 0-1.356-.097-.167-.251-.315-.43-.494-.178-.179-.327-.333-.495-.43a1.355 1.355 0 0 0-1.355 0c-.167.097-.316.251-.495.43L9.74 11.585c-.278.278-.407.613-.484.915a5.69 5.69 0 0 0-.09.438c-.024.143-.044.266-.07.386-.041.192-.083.385-.094.543-.01.167.006.408.2.602.193.193.434.21.6.199.159-.01.352-.053.543-.094.121-.026.244-.046.387-.07.137-.024.288-.051.438-.09.302-.077.637-.207.915-.484Z" class="Icon"/>
  </g>
</svg>
