<svg xmlns="http://www.w3.org/2000/svg" width="16" height="16" fill="none" viewBox="0 0 16 16">
  <style>
    .Icon {
      stroke: black;
    }
  </style>
  <g class="Interim Storage">
    <path stroke="#162A41" stroke-linecap="round" stroke-linejoin="round" d="M14.646 7.844v-1.61c0-.588-.295-1.135-.782-1.447L8.87 1.59a1.63 1.63 0 0 0-1.764 0L2.112 4.787a1.716 1.716 0 0 0-.782 1.447v6.73c0 .942.745 1.706 1.665 1.706h4.494m-1.996-1.98H6.99m-1.497-2H6.99m4.685-.792v1.167a1 1 0 0 0 .536.886l.662.347M9.485 6.5c0 .828-.67 1.5-1.497 1.5a1.499 1.499 0 0 1-1.497-1.5c0-.828.67-1.5 1.497-1.5.827 0 1.497.672 1.497 1.5Zm5.185 5.17c0 1.657-1.34 3-2.995 3a2.997 2.997 0 0 1-2.994-3c0-1.657 1.34-3 2.994-3a2.997 2.997 0 0 1 2.995 3Z" class="Icon"/>
  </g>
</svg>
