<svg xmlns="http://www.w3.org/2000/svg" width="16" height="16" fill="none" viewBox="0 0 16 16">
  <style>
    .Icon {
      stroke: black;
    }
  </style>
  <g class="Inventory">
    <path stroke="#162A41" stroke-linecap="round" stroke-linejoin="round" d="M3.4 10.8h1.2m2.8-8h1.2m2.8 8h1.2m-8 4.2H3.4c-1.131 0-1.697 0-2.049-.351C1 14.296 1 13.73 1 12.6v-1.2c0-1.131 0-1.697.351-2.049C1.703 9 2.27 9 3.4 9h1.2c1.131 0 1.697 0 2.049.351C7 9.703 7 10.27 7 11.4v1.2c0 1.131 0 1.697-.351 2.049C6.297 15 5.73 15 4.6 15Zm4-8H7.4c-1.131 0-1.697 0-2.049-.351C5 6.297 5 5.73 5 4.6V3.4c0-1.131 0-1.697.351-2.049C5.703 1 6.27 1 7.4 1h1.2c1.131 0 1.697 0 2.049.351C11 1.703 11 2.27 11 3.4v1.2c0 1.131 0 1.697-.351 2.049C10.296 7 9.73 7 8.6 7Zm4 8h-1.2c-1.131 0-1.697 0-2.049-.351C9 14.296 9 13.73 9 12.6v-1.2c0-1.131 0-1.697.351-2.049C9.703 9 10.27 9 11.4 9h1.2c1.131 0 1.697 0 2.049.351.351.352.351.918.351 2.049v1.2c0 1.131 0 1.697-.351 2.049C14.296 15 13.73 15 12.6 15Z" class="Icon"/>
  </g>
</svg>
