<svg xmlns="http://www.w3.org/2000/svg" width="16" height="16" fill="none" viewBox="0 0 16 16">
  <style>
    .Icon {
      stroke: black;
    }
  </style>
  <g class="Mobile warehouse">
    <path stroke="#162A41" stroke-linecap="round" stroke-linejoin="round" d="M7.643 10.5h.714m-1.428-5 .031.187c.07.405.104 1.057.245 1.18.148.13.358.133.795.133.437 0 .647-.004.795-.132.141-.124.176-.776.245-1.181l.03-.187m-7.741.734c0-.588.296-1.135.784-1.447L7.116 1.59a1.636 1.636 0 0 1 1.768 0l5.002 3.198c.488.312.784.859.784 1.447v6.73c0 .942-.746 1.706-1.668 1.706H2.998c-.921 0-1.668-.764-1.668-1.706v-6.73ZM5.5 7.95c0-1.155 0-1.732.366-2.091C6.232 5.5 6.822 5.5 8 5.5c1.179 0 1.768 0 2.134.359.366.359.366.936.366 2.091v2.1c0 1.155 0 1.732-.366 2.091-.366.359-.955.359-2.134.359-1.178 0-1.768 0-2.134-.359-.366-.359-.366-.936-.366-2.091v-2.1Z" class="Icon"/>
  </g>
</svg>
