<svg xmlns="http://www.w3.org/2000/svg" width="16" height="16" fill="none" viewBox="0 0 16 16">
  <style>
    .Icon {
      stroke: black;
    }
  </style>
  <g class="Mobile Picking Profile">
    <path stroke="#162A41" stroke-linecap="round" stroke-linejoin="round" d="M10.27 6.492v-1.89c0-1.086 0-1.629-.22-2.044a1.98 1.98 0 0 0-.883-.847C8.735 1.5 8.169 1.5 7.038 1.5H4.731c-1.131 0-1.697 0-2.128.211a1.98 1.98 0 0 0-.883.847c-.22.415-.22.958-.22 2.044v6.796c0 1.086 0 1.629.22 2.044.194.364.503.66.883.847.431.211.997.211 2.128.211h2.154M4.505 12h2.38M5.93 3.5H6m4.5 5c-.781.023-1.246.11-1.568.432-.322.322-.409.787-.432 1.567m4-1.999c.781.023 1.246.11 1.568.432.322.322.409.787.432 1.567m0 2.002c-.023.78-.11 1.245-.432 1.567-.322.322-.787.409-1.567.432m-2.002 0c-.78-.023-1.245-.11-1.567-.432-.322-.322-.409-.787-.432-1.567m2.997-.998h.01" class="Icon"/>
  </g>
</svg>
