<svg xmlns="http://www.w3.org/2000/svg" width="16" height="16" fill="none" viewBox="0 0 16 16">
  <style>
    .Icon {
      stroke: black;
    }
  </style>
  <g class="Package distribution">
    <path stroke="#162A41" stroke-linecap="round" stroke-linejoin="round" d="M8 14.667c-.545 0-1.067-.217-2.109-.65C3.297 12.94 2 12.401 2 11.495V5.163m6 9.504c.545 0 1.067-.217 2.109-.65C12.703 12.94 14 12.401 14 11.495V5.163m-6 9.504V8.112M2 5.163c0 .403.534.657 1.603 1.165l1.948.927c1.202.572 1.803.857 2.449.857M2 5.163c0-.403.534-.657 1.603-1.165L5 3.333m9 1.83c0 .403-.534.657-1.603 1.165l-1.948.927c-1.202.572-1.803.857-2.449.857m6-2.949c0-.403-.534-.657-1.603-1.165L11 3.333M4 8.768l1.333.655M8.003 6V1.333m0 0c.175-.002.348.12.476.27l.854 1.022m-1.33-1.292c-.17.003-.341.124-.477.27l-.86 1.022" class="Icon"/>
  </g>
</svg>
