<svg xmlns="http://www.w3.org/2000/svg" width="16" height="16" fill="none" viewBox="0 0 16 16">
  <style>
    .Icon {
      stroke: black;
    }
  </style>
  <g class="Pick List Profiles">
    <path stroke="#162A41" stroke-linecap="round" stroke-linejoin="round" d="M12.77 7.5V4.102c0-1.086 0-1.629-.22-2.044a1.98 1.98 0 0 0-.883-.847C11.235 1 10.669 1 9.538 1H5.231C4.1 1 3.534 1 3.103 1.211a1.98 1.98 0 0 0-.883.847C2 2.473 2 3.016 2 4.102v6.72c0 1.085 0 1.628.22 2.043.194.364.503.661.883.847.431.211.997.211 2.128.211H8M4.154 5.427l.994.958L7.385 4.23M4.154 9.735l.994.957L7.385 8.54M9 5.31h1.62m1.545 8.976V15m0-.714a1.807 1.807 0 0 1-1.501-.795m1.501.795c.626 0 1.178-.316 1.501-.795m-3.002 0-.664.438m.664-.438a1.765 1.765 0 0 1 0-1.982m3.002 1.982.664.438m-.664-.438a1.765 1.765 0 0 0 0-1.982m-1.501-.795c.626 0 1.178.316 1.501.795m-1.501-.795c-.626 0-1.178.316-1.501.795m1.501-.795V10m1.501 1.51.664-.439m-3.666.438L10 11.071" class="Icon"/>
  </g>
</svg>
