<svg xmlns="http://www.w3.org/2000/svg" width="16" height="16" fill="none" viewBox="0 0 16 16">
  <style>
    .Icon {
      stroke: black;
    }
  </style>
  <g class="Picking">
    <path stroke="#162A41" stroke-linecap="round" stroke-linejoin="round" d="M6.924 7.462h2.154M5.2 2h-.002C4.08 2 3.52 2 3.09 2.22c-.37.19-.68.5-.87.87C2 3.52 2 4.08 2 5.2M10.8 2h.002c1.119 0 1.678 0 2.108.22.37.19.68.5.87.87.22.43.22.99.22 2.11M5.2 14h-.002c-1.119 0-1.678 0-2.108-.22-.37-.19-.68-.5-.87-.87C2 12.48 2 11.92 2 10.8m8.8 3.2h.002c1.119 0 1.678 0 2.108-.22.37-.19.68-.5.87-.87.22-.43.22-.99.22-2.11m-8.153.431h4.308c.594 0 1.077-.482 1.077-1.076V5.847c0-.595-.483-1.077-1.077-1.077H5.847c-.595 0-1.077.482-1.077 1.077v4.308c0 .594.482 1.077 1.077 1.077Z" class="Icon"/>
  </g>
</svg>
