<svg xmlns="http://www.w3.org/2000/svg" width="16" height="16" fill="none" viewBox="0 0 16 16">
  <style>
    .Icon {
      stroke: black;
    }
  </style>
  <g class="Picking run">
    <path stroke="#162A41" stroke-linecap="round" stroke-linejoin="round" d="M14 13.333c-.429-.857-1.333-1.983-1.333-2.981 0-1.132.244-2.53-.282-3.582-.222-.444-.385-.894-.385-1.4V2.952a.286.286 0 0 0-.286-.285c-.947 0-1.714.767-1.714 1.714M5.333 12l2.424 1.514c.16.1.297.234.402.392l.508.76M3.352 10c.036.731.145 1.187.47 1.512C4.31 12 5.094 12 6.666 12c1.57 0 2.357 0 2.845-.488S10 10.238 10 8.667v-4c0-1.572 0-2.357-.488-2.846-.488-.488-1.274-.488-2.845-.488-1.572 0-2.357 0-2.846.488-.324.325-.433.781-.47 1.512M2.834 5h1a.833.833 0 1 0 0-1.667h-1a.833.833 0 0 0 0 1.667Zm0 0H4.5a.833.833 0 1 1 0 1.667H2.833m0-1.667a.833.833 0 1 0 0 1.667m0 0h1a.833.833 0 1 1 0 1.666h-1m0-1.666a.833.833 0 1 0 0 1.666m0 0H3.5A.833.833 0 1 1 3.5 10h-.667a.833.833 0 1 1 0-1.667ZM6.667 10h.006" class="Icon"/>
  </g>
</svg>
