<svg xmlns="http://www.w3.org/2000/svg" width="16" height="16" fill="none" viewBox="0 0 16 16">
  <style>
    .Icon {
      stroke: black;
    }
  </style>
  <g class="Production">
    <path stroke="#162A41" stroke-linecap="round" stroke-linejoin="round" d="M3 4v2.844c0 2.116 0 3.174.65 3.832.652.657 1.7.657 3.794.657h1.112c2.095 0 3.142 0 3.793-.657C13 10.018 13 8.96 13 6.844V4M3 4h10M3 4l.48-1.026c.374-.795.56-1.193.938-1.417.378-.224.863-.224 1.832-.224h3.5c.97 0 1.454 0 1.832.224.378.224.564.622.937 1.417L13 4M7 6h2m-1 7v1.667M8 13H4.667M8 13h3.333m-6.666 0H3c-.92 0-1.667.746-1.667 1.667M4.667 13v1.667M11.333 13H13c.92 0 1.667.746 1.667 1.667M11.333 13v1.667" class="Icon"/>
  </g>
</svg>
