<svg xmlns="http://www.w3.org/2000/svg" width="16" height="16" fill="none" viewBox="0 0 16 16">
  <style>
    .Icon {
      stroke: black;
    }
  </style>
  <g class="Returns reason">
    <path stroke="#162A41" stroke-linecap="round" stroke-linejoin="round" d="M10 11h2.04c.96 0 1.96.5 1.96 1.5S13 14 12.04 14H6m4-3 1.5 1.5M10 11l1.5-1.5m2.5-.806v-3.36m-12 0V8m4.667-.667h2.666M2 10.923c0-.51.448-.923 1-.923s1 .413 1 .923a.868.868 0 0 1-.158.499c-.3.429-.842.337-.842.847v.231M3 14h.006m10.46-12H2.534c-.5 0-.75 0-.924.118a.67.67 0 0 0-.207.226c-.102.182-.077.428-.027.92.083.82.124 1.23.342 1.524.108.146.246.269.404.36.317.185.735.185 1.57.185h8.614c.835 0 1.253 0 1.57-.184.158-.092.296-.215.404-.361.218-.294.26-.704.342-1.524.05-.492.075-.738-.027-.92a.67.67 0 0 0-.207-.226C14.216 2 13.966 2 13.465 2Z" class="Icon"/>
  </g>
</svg>
