<svg xmlns="http://www.w3.org/2000/svg" width="16" height="16" fill="none" viewBox="0 0 16 16">
  <style>
    .Icon {
      stroke: black;
    }
  </style>
  <g class="Returns">
    <path stroke="#162A41" stroke-linecap="round" stroke-linejoin="round" d="M10 11h2.04c.96 0 1.96.5 1.96 1.5S13 14 12.04 14H7.33M10 11l1.5 1.5M10 11l1.5-1.5" class="Icon"/>
    <path stroke="#162A41" stroke-linecap="round" stroke-linejoin="round" d="M2 5.333v3.36c0 2.502 0 3.753.781 4.53C3.562 14 4.819 14 7.333 14M14 8.694v-3.36m-7.333 2h2.666M13.465 2H2.535c-.5 0-.75 0-.924.118a.67.67 0 0 0-.207.226c-.102.182-.077.428-.027.92.083.82.124 1.23.342 1.524.108.146.246.269.404.36.317.185.735.185 1.57.185h8.614c.835 0 1.253 0 1.57-.184.158-.092.296-.215.404-.361.218-.294.26-.704.342-1.524.05-.492.075-.738-.027-.92a.67.67 0 0 0-.207-.226C14.216 2 13.966 2 13.465 2Z" class="Icon"/>
  </g>
</svg>
