<svg xmlns="http://www.w3.org/2000/svg" width="16" height="16" fill="none" viewBox="0 0 16 16">
  <style>
    .Icon {
      stroke: black;
    }
  </style>
  <g class="Sales order status">
    <path stroke="#162A41" stroke-linecap="round" stroke-linejoin="round" d="M5 5c.074 0 .505 0 .535.014a.15.15 0 0 1 .064.055c.018.027.023.064.034.137l.143.994m0 0 .317 2.32c.04.294.06.44.131.552a.602.602 0 0 0 .258.223c.12.055.269.055.568.055h2.58c.285 0 .427 0 .543-.05a.602.602 0 0 0 .254-.21c.072-.104.098-.243.152-.52l.399-2.085c.019-.098.028-.147.015-.185a.15.15 0 0 0-.067-.08c-.035-.02-.085-.02-.185-.02H5.776ZM14 9.5V6.663c0-2.514 0-3.77-.827-4.552-.827-.781-2.158-.781-4.82-.781h-.706c-2.662 0-3.993 0-4.82.781C2 2.892 2 4.15 2 6.663V9.33c0 2.514 0 3.771.827 4.552.827.781 2.158.781 4.82.781h1.356M7.413 10.7a.3.3 0 0 1-.301.3.3.3 0 0 1-.302-.3.3.3 0 0 1 .302-.3.3.3 0 0 1 .301.3Zm2.414 0a.3.3 0 0 1-.302.3.3.3 0 0 1-.301-.3.3.3 0 0 1 .301-.3.3.3 0 0 1 .302.3ZM14 13.17a1.5 1.5 0 1 1-3 0 1.5 1.5 0 0 1 3 0Z" class="Icon"/>
  </g>
</svg>
