<svg xmlns="http://www.w3.org/2000/svg" width="16" height="16" fill="none" viewBox="0 0 16 16">
  <style>
    .Icon {
      stroke: black;
    }
  </style>
  <g class="Scanning slips">
    <path stroke="#162A41" stroke-linecap="round" stroke-linejoin="round" d="M1.333 6.668c.02-2.276.146-3.53.973-4.358.977-.977 2.549-.977 5.692-.977 3.144 0 4.715 0 5.692.977.977.976.977 2.548.977 5.692 0 3.143 0 4.715-.977 5.692-.827.827-2.082.953-4.358.973m-6-6c-.78.023-1.245.11-1.567.432-.322.321-.408.787-.432 1.567m4.001-2c.78.024 1.245.11 1.567.433.322.321.409.787.432 1.567m0 2.002c-.023.78-.11 1.245-.432 1.567-.322.322-.787.408-1.567.432m-2.002 0c-.78-.024-1.245-.11-1.567-.432-.322-.322-.408-.787-.432-1.567m2.997-.998h.01M11.67 5H4.33m7.337 3h-2m2 3h-2" class="Icon"/>
  </g>
</svg>
