<svg xmlns="http://www.w3.org/2000/svg" width="16" height="16" fill="none" viewBox="0 0 16 16">
  <style>
    .Icon {
      stroke: black;
    }
  </style>
  <g class="Serial numbers">
    <path stroke="#162A41" stroke-linecap="round" stroke-linejoin="round" d="M6.943 5.89h1.052c.196 0 .293 0 .375.017a.842.842 0 0 1 .661.661c.016.081.016.18.016.375s0 .293-.016.375a.842.842 0 0 1-.661.661c-.082.016-.18.016-.375.016-.196 0-.293 0-.375.016a.842.842 0 0 0-.661.662c-.016.081-.016.179-.016.375v.631c0 .198 0 .298.061.36.062.061.161.061.36.061h1.683m1.579-4.21h1.052c.196 0 .294 0 .375.017a.842.842 0 0 1 .661.661c.017.081.017.18.017.375s0 .293-.017.375a.842.842 0 0 1-.661.661c-.081.016-.18.016-.375.016m0 0h-.526m.526 0c.196 0 .294 0 .375.016a.842.842 0 0 1 .661.662c.017.081.017.179.017.375 0 .195 0 .293-.017.374a.842.842 0 0 1-.661.662c-.081.016-.18.016-.375.016h-1.052M3.259 5.89h.842a.21.21 0 0 1 .21.211V10.1m0 0H3.26m1.053 0h1.052M1.33 7.995c0-3.142 0-4.713.976-5.689s2.547-.976 5.689-.976 4.713 0 5.689.976.976 2.547.976 5.69c0 3.141 0 4.712-.976 5.688s-2.547.976-5.689.976-4.713 0-5.689-.976-.976-2.547-.976-5.689Z" class="Icon"/>
  </g>
</svg>
