<svg xmlns="http://www.w3.org/2000/svg" width="16" height="16" fill="none" viewBox="0 0 16 16">
  <style>
    .Icon {
      stroke: black;
    }
  </style>
  <g class="Store order">
    <path stroke="#162A41" stroke-linecap="round" stroke-linejoin="round" d="M7.667 14.667H6.72c-1.556 0-2.333 0-2.875-.484-.541-.483-.678-1.299-.951-2.931l-.775-4.628c-.127-.753-.19-1.13.005-1.377C2.318 5 2.676 5 3.394 5h9.212c.717 0 1.076 0 1.27.247.195.247.132.624.005 1.377l-.454 2.71m-4.094 4.222s.584 0 1.167 1.11c0 0 1.853-2.777 3.5-3.333M4.667 5v-.333a3.333 3.333 0 1 1 6.666 0V5M3 11.667h4.667" class="Icon"/>
  </g>
</svg>
