<svg xmlns="http://www.w3.org/2000/svg" width="16" height="16" fill="none" viewBox="0 0 16 16">
  <style>
    .Icon {
      stroke: black;
    }
  </style>
  <g class="Store receipts">
    <path stroke="#162A41" stroke-linecap="round" stroke-linejoin="round" d="M1.656 6.333c-.39-.405-.317-.927-.317-2.232 0-1.305 0-1.957.39-2.362.39-.406 1.018-.406 2.274-.406h7.994c1.256 0 1.884 0 2.274.406.39.405.39 1.057.39 2.362 0 1.305.073 1.827-.317 2.232M8 6.667H6m3.333 2.666h-4m5.627 4.899.369-.46c.323-.405 1.01-.372 1.283.06.329.521 1.14.417 1.366-.061.012-.025-.018.037.007-.178.025-.216.015-.265-.006-.363l-1.282-6.054c-.322-1.521-.483-2.282-1.037-2.729C11.104 4 10.322 4 8.758 4H7.24c-1.564 0-2.346 0-2.9.447-.555.447-.716 1.208-1.038 2.73L2.02 13.23c-.021.098-.031.147-.006.363.025.215-.005.153.007.178.225.478 1.037.582 1.366.061.273-.432.96-.465 1.283-.06l.369.46c.463.58 1.432.58 1.896 0l.058-.072c.492-.616 1.52-.616 2.012 0l.058.072c.464.58 1.433.58 1.896 0Z" class="Icon"/>
  </g>
</svg>
