<svg xmlns="http://www.w3.org/2000/svg" width="16" height="16" fill="none" viewBox="0 0 16 16">
  <style>
    .Icon {
      stroke: black;
    }
  </style>
  <g class="Tracking number scan">
    <path stroke="#162A41" stroke-linecap="round" stroke-linejoin="round" d="M6.09 1.67c-1.78.04-2.82.21-3.53.91-.62.62-.82 1.49-.89 2.89m8.24-3.8c1.78.04 2.82.21 3.53.91.62.62.82 1.49.89 2.89m-8.24 8.86c-1.78-.04-2.82-.21-3.53-.91-.62-.62-.82-1.49-.89-2.89m8.24 3.8c1.78-.04 2.82-.21 3.53-.91.62-.62.82-1.49.89-2.89M1.59 8.25v-.5m12.8.5v-.5M9 7a1 1 0 1 1-2 0 1 1 0 0 1 2 0Zm-4 .23C5 5.45 6.34 4 8 4s3 1.45 3 3.23c0 1.02-.37 1.82-1.12 2.53-.53.5-1.48 1.58-1.88 2.24-.38-.67-1.35-1.74-1.87-2.24C5.38 9.05 5 8.25 5 7.23Z" class="Icon"/>
  </g>
</svg>
