<svg xmlns="http://www.w3.org/2000/svg" width="16" height="16" fill="none" viewBox="0 0 16 16">
  <style>
    .Icon {
      stroke: black;
    }
  </style>
  <g class="UPS account">
    <g class="Icon">
      <path stroke="#162A41" stroke-linejoin="round" d="M2 9.23V2.31c2.991-1.554 8.28-1.93 12 0v6.92c0 3.259-2.408 4.237-6 5.77l-.106-.045C4.348 13.447 2 12.448 2 9.23Z"/>
      <path stroke="#162A41" stroke-linejoin="round" d="M5.238 10.566c-.754-.718.483-1.291.955-1.572a3.554 3.554 0 0 1 3.614 0c.472.28 1.708.854.955 1.572-.367.35-.777.6-1.292.6H6.53c-.515 0-.925-.25-1.292-.6ZM8 7a1.5 1.5 0 1 0 0-3 1.5 1.5 0 0 0 0 3Z"/>
    </g>
  </g>
</svg>
