<svg xmlns="http://www.w3.org/2000/svg" width="16" height="16" fill="none" viewBox="0 0 16 16">
  <style>
    .Icon {
      stroke: black;
    }
  </style>
  <g class="Warehouse Management">
    <path stroke="#162A41" stroke-linecap="round" stroke-linejoin="round" d="M14.67 8V6.234c0-.588-.296-1.135-.784-1.447L8.884 1.59a1.636 1.636 0 0 0-1.768 0L2.114 4.787a1.715 1.715 0 0 0-.784 1.447v6.73c0 .942.747 1.706 1.668 1.706H8.5m4.005-.714v.714m0-.714a1.807 1.807 0 0 1-1.501-.795m1.501.795c.626 0 1.178-.316 1.501-.795m-3.002 0-.664.438m.664-.438a1.764 1.764 0 0 1-.303-.991c0-.367.111-.707.303-.99m3.002 1.98.664.439m-.664-.438a1.765 1.765 0 0 0 0-1.982m-1.501-.795c.626 0 1.178.316 1.501.795m-1.501-.795c-.626 0-1.178.316-1.501.795m1.501-.795V9.67m1.501 1.51.664-.438m-3.666.437-.664-.438M5.5 12.69H8m-2.5-2H8M9.5 6.5a1.5 1.5 0 1 1-3 0 1.5 1.5 0 0 1 3 0Z" class="Icon"/>
  </g>
</svg>
