<svg xmlns="http://www.w3.org/2000/svg" width="16" height="16" fill="none" viewBox="0 0 16 16">
  <style>
    .Icon {
      stroke: black;
    }
  </style>
  <g class="Workplace groups">
    <path stroke="#162A41" stroke-linecap="round" stroke-linejoin="round" d="M10.667 3.333c0-.942 0-1.414.293-1.707.292-.293.764-.293 1.707-.293.942 0 1.414 0 1.707.293.293.293.293.765.293 1.707 0 .943 0 1.415-.293 1.707-.293.293-.765.293-1.707.293-.943 0-1.415 0-1.707-.293-.293-.292-.293-.764-.293-1.707Zm0 0H10c-1.635.122-2 .802-2 3.102v3.13c0 2.3.365 2.98 2 3.102h.667m0 0c0-.943 0-1.415.293-1.707.292-.293.764-.293 1.707-.293.942 0 1.414 0 1.707.293.293.292.293.764.293 1.707 0 .942 0 1.414-.293 1.707-.293.293-.765.293-1.707.293-.943 0-1.415 0-1.707-.293-.293-.293-.293-.765-.293-1.707ZM4.132 6.4h-.931C1.86 6.4.959 7.832 1.486 9.12c.074.18.242.295.429.295h.328c.11 0 .207.08.234.191l.422 1.767a.799.799 0 0 0 .768.627c.363 0 .68-.258.767-.627l.423-1.767a.243.243 0 0 1 .233-.19h.328a.466.466 0 0 0 .43-.296c.527-1.288-.376-2.72-1.716-2.72Zm.701-1.2c0 .663-.522 1.2-1.166 1.2-.645 0-1.167-.537-1.167-1.2 0-.663.522-1.2 1.167-1.2.644 0 1.166.537 1.166 1.2Z" class="Icon"/>
  </g>
</svg>
