<svg xmlns="http://www.w3.org/2000/svg" width="16" height="16" fill="none" viewBox="0 0 16 16">
  <style>
    .Icon {
      stroke: black;
    }
  </style>
  <g class="Order Proposal">
    <path stroke="#162A41" stroke-linecap="round" stroke-linejoin="round" d="M7.5 2.006c-.318.007-.635.02-.947.041-2.789.186-5.01 2.439-5.193 5.267a13.166 13.166 0 0 0 0 1.68c.067 1.03.522 1.984 1.059 2.79.311.563.105 1.266-.219 1.881-.234.443-.35.665-.257.825.094.16.304.165.723.175.83.02 1.39-.214 1.833-.542.252-.185.378-.278.465-.29.086-.01.257.06.599.201.307.127.663.205.99.226.95.063 1.943.064 2.894 0 2.789-.185 5.01-2.438 5.193-5.266.01-.163.018-.328.022-.494M5.667 6.667H8.5M5.667 10h4.666m-.017-7.67-.119-.828c-.008-.061-.013-.092-.027-.114a.125.125 0 0 0-.054-.047c-.025-.01-.384-.01-.446-.01m.646 1 .265 1.932c.033.245.05.368.11.46a.501.501 0 0 0 .214.186c.1.046.224.046.473.046h2.152c.236 0 .355 0 .452-.042a.502.502 0 0 0 .211-.174c.06-.087.082-.203.127-.434l.332-1.737c.016-.082.024-.123.013-.155a.125.125 0 0 0-.056-.066c-.029-.017-.07-.017-.154-.017h-4.139Zm3.464 4a.25.25 0 1 1-.5-.001.25.25 0 0 1 .5 0Zm-2.01 0a.25.25 0 1 1-.5 0 .25.25 0 0 1 .5 0Z" class="Icon"/>
  </g>
</svg>
