<svg xmlns="http://www.w3.org/2000/svg" width="16" height="16" fill="none" viewBox="0 0 16 16">
  <style>
    .Icon {
      stroke: black;
    }
  </style>
  <g class="Price request">
    <path stroke="#162A41" stroke-linecap="round" stroke-linejoin="round" d="M13.33 7.5v-.833c0-2.515 0-3.772-.827-4.553-.827-.78-2.158-.78-4.82-.78h-.706c-2.662 0-3.993 0-4.82.78-.827.781-.827 2.038-.827 4.553v2.666c0 2.514 0 3.771.827 4.553.827.78 2.158.78 4.82.78h1.356M7.5 5.693H8c.552 0 1 .482 1 1.077M7.5 5.692h-.429C6.48 5.692 6 6.21 6 6.846 6 7.483 6.48 8 7.071 8h.858C8.52 8 9 8.517 9 9.154c0 .637-.48 1.154-1.071 1.154H7.5m0-4.616V5m0 5.308H7c-.552 0-1-.482-1-1.077m1.5 1.077V11m4.67-.048c0-.708.56-1.282 1.25-1.282s1.25.574 1.25 1.282a1.3 1.3 0 0 1-.198.693c-.28.445-.843.457-1.052.942-.018.041-.013.229-.006.416m.001 1.667h.006" class="Icon"/>
  </g>
</svg>
