<svg xmlns="http://www.w3.org/2000/svg" width="16" height="16" fill="none" viewBox="0 0 16 16">
  <style>
    .Icon {
      stroke: black;
    }
  </style>
  <g class="Purchase suggestions">
    <path stroke="#162A41" stroke-linecap="round" stroke-linejoin="round" d="M2.667 9.333h1.596c.196 0 .39.045.565.13l1.361.658c.176.085.37.13.565.13h.695c.673 0 1.218.527 1.218 1.177a.06.06 0 0 1-.044.057l-1.694.468a1.3 1.3 0 0 1-.912-.082l-1.456-.704M8.667 11l3.062-.94c.542-.17 1.13.03 1.47.502a.717.717 0 0 1-.213 1.034l-5.01 2.891a1.33 1.33 0 0 1-1.046.125l-4.263-1.265m6-10.014H10M10 8H8.667C7.41 8 6.78 8 6.39 7.61 6 7.219 6 6.59 6 5.333V4c0-1.257 0-1.886.39-2.276.391-.39 1.02-.39 2.277-.39H10c1.257 0 1.886 0 2.276.39.39.39.39 1.019.39 2.276v1.333c0 1.257 0 1.886-.39 2.277C11.886 8 11.257 8 10 8Z" class="Icon"/>
  </g>
</svg>
