<svg xmlns="http://www.w3.org/2000/svg" width="16" height="16" fill="none" viewBox="0 0 16 16">
  <style>
    .Icon {
      stroke: black;
    }
  </style>
  <g class="Purchase Orders">
    <path stroke="#162A41" stroke-linecap="round" stroke-linejoin="round" d="M13.33 7.5v-.833c0-2.515 0-3.772-.827-4.553-.827-.78-2.158-.78-4.82-.78h-.706c-2.662 0-3.993 0-4.82.78-.827.781-.827 2.038-.827 4.553v2.666c0 2.514 0 3.771.827 4.553.827.78 2.158.78 4.82.78h1.356m1.983-4.246-.119-.828a.307.307 0 0 0-.027-.115.125.125 0 0 0-.054-.046c-.025-.011-.384-.011-.446-.011m.646 1 .265 1.933c.034.245.05.368.11.46a.502.502 0 0 0 .214.186c.1.046.224.046.473.046h2.152c.237 0 .355 0 .452-.042a.502.502 0 0 0 .211-.174c.06-.087.082-.203.127-.434l.333-1.738c.015-.081.023-.122.012-.154a.125.125 0 0 0-.056-.066c-.029-.017-.07-.017-.154-.017h-4.139ZM9.986 6h-5.32m3.658 2H4.667m1.662 2H4.667m9.113 4.42a.25.25 0 1 1-.5 0 .25.25 0 0 1 .5 0Zm-2.01 0a.25.25 0 1 1-.5 0 .25.25 0 0 1 .5 0Z" class="Icon"/>
  </g>
</svg>
