<svg xmlns="http://www.w3.org/2000/svg" width="16" height="16" fill="none" viewBox="0 0 16 16">
  <style>
    .Icon {
      stroke: black;
    }
  </style>
  <g class="Accounts Payable">
    <path stroke="#162A41" stroke-linecap="round" stroke-linejoin="round" d="M10.667 4c0-1.257 0-1.886-.39-2.276-.391-.39-1.02-.39-2.277-.39-1.257 0-1.886 0-2.276.39-.39.39-.39 1.019-.39 2.276M8 7.333c-.736 0-1.333.448-1.333 1 0 .553.597 1 1.333 1s1.333.448 1.333 1c0 .553-.597 1-1.333 1m0-4c.58 0 1.074.279 1.257.667M8 7.333v-.666m0 4.666c-.58 0-1.074-.278-1.257-.666M8 11.333V12M4 8H1.333m13.334 0H12M1.333 9.333c0-2.337 0-3.506.606-4.293.11-.144.234-.276.37-.394C3.045 4 4.141 4 6.332 4h3.334c2.191 0 3.287 0 4.025.646.135.118.258.25.37.394.605.787.605 1.956.605 4.293 0 2.338 0 3.507-.606 4.294-.11.144-.234.276-.37.394-.737.646-1.833.646-4.024.646H6.333c-2.191 0-3.287 0-4.025-.646a2.763 2.763 0 0 1-.37-.394c-.605-.787-.605-1.956-.605-4.294Z" class="Icon"/>
  </g>
</svg>
