<svg xmlns="http://www.w3.org/2000/svg" width="16" height="16" fill="none" viewBox="0 0 16 16">
  <style>
    .Icon {
      stroke: black;
    }
  </style>
  <g class="Bank">
    <path stroke="#162A41" stroke-linecap="round" stroke-linejoin="round" d="M2.667 6.667v5.666m2.666-5.666v5.666m2 0h-4a2 2 0 0 0-2 2c0 .184.15.334.334.334h5.666m6.667-8v5.666m-2.667-5.666v5.666m-5 0h7a2 2 0 0 1 2 2 .334.334 0 0 1-.333.334H6.333m2-8v5.666m-7-6.62c0-.798.322-1.287.987-1.657l2.74-1.524c1.435-.8 2.153-1.199 2.94-1.199.787 0 1.505.4 2.94 1.199l2.74 1.524c.665.37.987.86.987 1.657 0 .216 0 .324-.024.413-.124.467-.547.54-.956.54H2.313c-.409 0-.832-.073-.956-.54-.024-.089-.024-.197-.024-.413Z" class="Icon"/>
  </g>
</svg>
