<svg xmlns="http://www.w3.org/2000/svg" width="16" height="16" fill="none" viewBox="0 0 16 16">
  <style>
    .Icon {
      stroke: black;
    }
  </style>
  <g class="Batch processing of documents">
    <path stroke="#162A41" stroke-linecap="round" stroke-linejoin="round" d="M5 6.37h3m0 0h2.85c1.264 0 1.896 0 2.35.3.197.13.365.296.497.49.148.22.224.483.263.84M8 6.37l-.38-.75c-.315-.622-.603-1.248-1.3-1.507C6.014 4 5.665 4 4.967 4c-1.09 0-1.635 0-2.044.226-.292.16-.532.398-.695.686C2 5.315 2 5.854 2 6.93v1.81c0 2.794 0 4.191.879 5.059.768.759 1.946.854 4.121.866M2 1.334h3.667c.646 0 1.278-.02 1.825.37.701.498.981 1.428 1.682 1.926.547.39 1.18.37 1.826.37h3m-2.28 10.017 1.741-1.74c.158-.158.294-.29.379-.437.213-.37.213-.825 0-1.195-.085-.148-.221-.279-.379-.436-.157-.158-.288-.294-.436-.379a1.195 1.195 0 0 0-1.195 0c-.148.085-.279.221-.436.379l-1.741 1.74c-.245.246-.36.542-.427.807a5.017 5.017 0 0 0-.08.387 8.792 8.792 0 0 1-.061.34c-.036.17-.074.34-.083.48-.01.146.005.36.176.53.17.17.383.184.53.175.14-.009.31-.046.479-.082.106-.023.215-.04.34-.063.121-.02.254-.045.387-.078.266-.068.561-.183.806-.428Z" class="Icon"/>
  </g>
</svg>
