<svg xmlns="http://www.w3.org/2000/svg" width="16" height="16" fill="none" viewBox="0 0 16 16">
  <style>
    .Icon {
      stroke: black;
    }
  </style>
  <g class="Cash book">
    <path stroke="#162A41" stroke-linecap="round" stroke-linejoin="round" d="M13.667 11.286v-4.62c0-2.513 0-3.77-.781-4.551-.781-.782-2.039-.782-4.553-.782h-.666c-2.515 0-3.772 0-4.553.782-.78.78-.78 2.038-.78 4.552V13m0 0c0-.92.746-1.666 1.666-1.666h9.667a1.667 1.667 0 0 0 0 3.333H4c-.92 0-1.667-.746-1.667-1.667ZM8 4.192h.5c.552 0 1 .482 1 1.077M8 4.192h-.429c-.591 0-1.071.517-1.071 1.154 0 .637.48 1.154 1.071 1.154h.858c.591 0 1.071.517 1.071 1.154 0 .637-.48 1.154-1.071 1.154H8m0-4.616V3.5m0 5.308h-.5c-.552 0-1-.482-1-1.077M8 8.808V9.5" class="Icon"/>
  </g>
</svg>
