<svg xmlns="http://www.w3.org/2000/svg" width="16" height="16" fill="none" viewBox="0 0 16 16">
  <style>
    .Icon {
      stroke: black;
    }
  </style>
  <g class="Collective debitors">
    <path stroke="#162A41" stroke-linecap="round" stroke-linejoin="round" d="M1.333 7.333c1.555-1.628 3.762-1.705 5.334 0m2.666 7.334c1.555-1.628 3.762-1.705 5.334 0M3 10h1c.186 0 .279 0 .356.015a.8.8 0 0 1 .629.629C5 10.72 5 10.814 5 11c0 .186 0 .279-.015.356a.8.8 0 0 1-.629.629C4.279 12 4.186 12 4 12c-.186 0-.279 0-.356.015a.8.8 0 0 0-.629.629C3 12.72 3 12.814 3 13v.6c0 .189 0 .283.059.341.058.059.152.059.341.059H5m6-12h.8c.11 0 .2.09.2.2V6m0 0h-1m1 0h1M5.663 3c0 .92-.747 1.667-1.669 1.667A1.668 1.668 0 1 1 5.664 3Zm8 7.333c0 .92-.747 1.667-1.669 1.667a1.668 1.668 0 1 1 1.67-1.667Z" class="Icon"/>
  </g>
</svg>
