<svg xmlns="http://www.w3.org/2000/svg" width="16" height="16" fill="none" viewBox="0 0 16 16">
  <style>
    .Icon {
      stroke: black;
    }
  </style>
  <g class="Collective account">
    <path stroke="#162A41" stroke-linecap="round" stroke-linejoin="round" d="M8 8.667v1.666m0 0 1.667 1m-1.667-1-1.667 1m.261-6.296c-.367.21-1.328.64-.743 1.179.287.263.605.45 1.006.45h2.286c.4 0 .72-.187 1.006-.45.585-.538-.376-.968-.743-1.179a2.853 2.853 0 0 0-2.812 0ZM9 2.333a1 1 0 1 1-2 0 1 1 0 0 1 2 0Zm1.928 10.704c-.367.21-1.329.64-.743 1.179.286.263.605.45 1.005.45h2.286c.401 0 .72-.187 1.006-.45.586-.538-.376-.968-.743-1.179a2.853 2.853 0 0 0-2.812 0Zm2.405-2.704a1 1 0 1 1-2 0 1 1 0 0 1 2 0ZM2.261 13.037c-.367.21-1.329.64-.743 1.179.286.263.605.45 1.006.45H4.81c.4 0 .72-.187 1.005-.45.586-.538-.376-.968-.743-1.179a2.853 2.853 0 0 0-2.811 0Zm2.406-2.704a1 1 0 1 1-2 0 1 1 0 0 1 2 0Z" class="Icon"/>
  </g>
</svg>
