<svg xmlns="http://www.w3.org/2000/svg" width="16" height="16" fill="none" viewBox="0 0 16 16">
  <style>
    .Icon {
      stroke: black;
    }
  </style>
  <g class="Commission">
    <path stroke="#162A41" stroke-linecap="round" stroke-linejoin="round" d="M8 5.692h.5c.552 0 1 .483 1 1.077M8 5.692h-.429c-.591 0-1.071.517-1.071 1.154C6.5 7.484 6.98 8 7.571 8h.858C9.02 8 9.5 8.517 9.5 9.154c0 .637-.48 1.154-1.071 1.154H8m0-4.616V5m0 5.308h-.5c-.552 0-1-.482-1-1.077M8 10.308V11m6.643-7.996s.117-1.19-.17-1.477m0 0c-.289-.289-1.477-.169-1.477-.169m1.477.17-1.806 1.805m1.976 9.663s.117 1.19-.17 1.477m0 0c-.289.29-1.477.17-1.477.17m1.477-.17-1.806-1.806M1.527 1.527l1.806 1.806M1.527 1.527c.289-.289 1.477-.169 1.477-.169m-1.477.17c-.287.286-.17 1.476-.17 1.476m.17 11.47 1.806-1.807m-1.806 1.806c.289.29 1.477.17 1.477.17m-1.477-.17c-.287-.287-.17-1.477-.17-1.477M12.667 8a4.667 4.667 0 1 1-9.334 0 4.667 4.667 0 0 1 9.334 0Z" class="Icon"/>
  </g>
</svg>
