<svg xmlns="http://www.w3.org/2000/svg" width="16" height="16" fill="none" viewBox="0 0 16 16">
  <style>
    .Icon {
      stroke: black;
    }
  </style>
  <g class="Credit Notes">
    <path stroke="#162A41" stroke-linecap="round" stroke-linejoin="round" d="M8 5.192h.5c.552 0 1 .482 1 1.077M8 5.192h-.429c-.591 0-1.071.517-1.071 1.154 0 .637.48 1.154 1.071 1.154h.858c.591 0 1.071.517 1.071 1.154 0 .637-.48 1.154-1.071 1.154H8m0-4.616V4.5m0 5.308h-.5c-.552 0-1-.482-1-1.077M8 9.808v.692m-5.67 1.93V5.37c0-1.903 0-2.854.622-3.445.622-.592 1.624-.592 3.627-.592H9.41c2.003 0 3.005 0 3.627.592.622.59.622 1.542.622 3.445v7.06c0 1.008 0 1.512-.327 1.71-.535.325-1.361-.355-1.777-.602-.343-.204-.515-.306-.705-.311-.206-.007-.381.091-.752.311l-1.353.804c-.365.216-.548.325-.751.325-.203 0-.386-.109-.75-.325l-1.354-.804c-.343-.204-.515-.306-.705-.311-.206-.007-.381.091-.752.311-.416.247-1.242.927-1.777.603-.327-.199-.327-.703-.327-1.71Z" class="Icon"/>
  </g>
</svg>
