<svg xmlns="http://www.w3.org/2000/svg" width="16" height="16" fill="none" viewBox="0 0 16 16">
  <style>
    .Icon {
      stroke: black;
    }
  </style>
  <g class="Document batch processing">
    <path stroke="#162A41" stroke-linecap="round" stroke-linejoin="round" d="M4.667 4.333h6.5c1.404 0 2.106 0 2.61.337a2 2 0 0 1 .553.552c.294.44.331 1.032.336 2.111M8 4.333l-.422-.844c-.35-.7-.67-1.404-1.445-1.695-.34-.127-.728-.127-1.504-.127-1.21 0-1.816 0-2.27.253a2 2 0 0 0-.772.772c-.254.454-.254 1.06-.254 2.27V7c0 3.143 0 4.714.977 5.69.866.867 2.202.964 4.69.975h.333m4.717-.318 1.741-1.74c.158-.158.294-.29.379-.437.213-.37.213-.825 0-1.195-.085-.148-.221-.279-.379-.436-.157-.158-.288-.294-.436-.38a1.195 1.195 0 0 0-1.195 0c-.148.086-.279.222-.436.38l-1.741 1.74c-.245.245-.36.541-.427.807a5.017 5.017 0 0 0-.08.387c-.021.125-.039.234-.061.34-.036.169-.074.34-.083.48a.658.658 0 0 0 .176.53c.17.17.383.184.53.175.14-.01.31-.047.479-.083.106-.022.215-.04.34-.062.121-.02.254-.045.387-.079.266-.068.561-.182.806-.427Z" class="Icon"/>
  </g>
</svg>
