<svg xmlns="http://www.w3.org/2000/svg" width="16" height="16" fill="none" viewBox="0 0 16 16">
  <style>
    .Icon {
      stroke: black;
    }
  </style>
  <g class="Dunning">
    <path stroke="#162A41" stroke-linecap="round" stroke-linejoin="round" d="M14 6.667c0-2.515 0-3.772-.827-4.553-.827-.78-2.158-.78-4.82-.78h-.706c-2.662 0-3.993 0-4.82.78C2 2.895 2 4.152 2 6.667v2.666c0 2.514 0 3.771.827 4.553.827.78 2.158.78 4.82.78H8m-2.667-10h5.334M5.333 8h3.334m3.5 1.362h.5c.552 0 1 .482 1 1.077m-1.5-1.077h-.429c-.592 0-1.071.517-1.071 1.154 0 .637.48 1.154 1.071 1.154h.857c.592 0 1.072.516 1.072 1.154 0 .637-.48 1.153-1.072 1.153h-.428m0-4.615V8.67m0 5.307h-.5c-.553 0-1-.482-1-1.076m1.5 1.076v.693" class="Icon"/>
  </g>
</svg>
