<svg xmlns="http://www.w3.org/2000/svg" width="16" height="16" fill="none" viewBox="0 0 16 16">
  <style>
    .Icon {
      stroke: black;
    }
  </style>
  <g class="Group invoice">
    <path stroke="#162A41" stroke-linecap="round" stroke-linejoin="round" d="M13.336 12V4m-9.338 9.334h8.004m0-10.667H3.998M2.664 4v8M8 5.692h.5c.553 0 1 .483 1 1.077M8 5.692h-.429c-.592 0-1.072.517-1.072 1.154C6.5 7.484 6.98 8 7.571 8h.858C9.02 8 9.5 8.517 9.5 9.154c0 .637-.48 1.154-1.072 1.154H8m0-4.616V5m0 5.308h-.5c-.553 0-1-.482-1-1.077M8 10.308V11m4.669-9.666h1.334c.368 0 .667.298.667.666v1.333a.667.667 0 0 1-.667.667h-1.334a.667.667 0 0 1-.667-.667V2c0-.368.299-.667.667-.667Zm-10.672 0h1.334c.368 0 .667.298.667.666v1.333A.667.667 0 0 1 3.331 4H1.997a.667.667 0 0 1-.667-.667V2c0-.368.299-.667.667-.667ZM12.669 12h1.334c.368 0 .667.299.667.667V14a.667.667 0 0 1-.667.667h-1.334a.667.667 0 0 1-.667-.667v-1.333c0-.368.299-.667.667-.667ZM1.997 12h1.334c.368 0 .667.299.667.667V14a.667.667 0 0 1-.667.667H1.997A.667.667 0 0 1 1.33 14v-1.333c0-.368.299-.667.667-.667Z" class="Icon"/>
  </g>
</svg>
