<svg xmlns="http://www.w3.org/2000/svg" width="16" height="16" fill="none" viewBox="0 0 16 16">
  <style>
    .Icon {
      stroke: black;
    }
  </style>
  <g class="Invoice run">
    <path stroke="#162A41" stroke-linecap="round" stroke-linejoin="round" d="m8 13.964-.635.173c-1.796.489-2.694.733-3.4.319-.708-.415-.949-1.328-1.43-3.153l-.68-2.58c-.482-1.826-.722-2.738-.314-3.457.353-.622 1.126-.6 2.126-.6m6.603.06.483.13c.533.143.84.725.687 1.3m-1.17-1.43-.414-.11c-.572-.153-1.169.222-1.334.837-.165.616.165 1.239.736 1.392l.828.222c.572.153.902.776.737 1.392-.165.615-.762.99-1.334.837l-.414-.111m1.195-4.458.179-.669M9.075 9.185l-.483-.13c-.533-.142-.841-.724-.687-1.298m1.17 1.428-.179.669m-.912 2.123.637.17c1.8.48 2.7.72 3.409.313.709-.408.95-1.303 1.432-3.092l.682-2.532c.482-1.79.724-2.684.314-3.39-.409-.704-1.309-.944-3.109-1.424l-.636-.17c-1.8-.479-2.7-.719-3.41-.312-.708.407-.95 1.302-1.432 3.092L5.19 7.163c-.482 1.79-.723 2.685-.314 3.39.41.705 1.31.945 3.11 1.424Z" class="Icon"/>
  </g>
</svg>
