<svg xmlns="http://www.w3.org/2000/svg" width="16" height="16" fill="none" viewBox="0 0 16 16">
  <style>
    .Icon {
      stroke: black;
    }
  </style>
  <g class="Invoices">
    <path stroke="#162A41" stroke-linecap="round" stroke-linejoin="round" d="M6.5 4.692H7c.552 0 1 .482 1 1.077M6.5 4.692h-.429C5.48 4.692 5 5.21 5 5.846 5 6.483 5.48 7 6.071 7h.858C7.52 7 8 7.517 8 8.154c0 .637-.48 1.154-1.071 1.154H6.5m0-4.616V4m0 5.308H6c-.552 0-1-.483-1-1.077m1.5 1.077V10M5 12h6m-1-2h1m-.5-2h.5m2.667 0c0-1.227.005-3.222-1.223-3.222-.443 0-.967.077-1.398-.038a1.111 1.111 0 0 1-.786-.786c-.116-.431-.038-.955-.038-1.399 0-1.227-1.995-1.222-3.222-1.222m-4.667 8c0 2.514 0 3.771.83 4.553.83.78 2.166.78 4.837.78h.515c2.174 0 3.261 0 4.016-.531a2.72 2.72 0 0 0 .57-.537c.566-.71.566-1.734.566-3.78V8.121c0-1.975 0-2.963-.313-3.752-.503-1.268-1.565-2.268-2.913-2.742-.838-.294-1.888-.294-3.986-.294-1.2 0-1.8 0-2.278.168-.77.27-1.378.842-1.665 1.567-.179.45-.179 1.015-.179 2.144v4.121Z" class="Icon"/>
  </g>
</svg>
