<svg xmlns="http://www.w3.org/2000/svg" width="16" height="16" fill="none" viewBox="0 0 16 16">
  <style>
    .Icon {
      stroke: black;
    }
  </style>
  <g class="Payments">
    <path stroke="#162A41" stroke-linecap="round" stroke-linejoin="round" d="M12.663 12.667c.23-.034.452-.075.667-.125.394-.091.591-.137.827-.325a1.59 1.59 0 0 0 .377-.477c.13-.274.13-.54.13-1.071V3.427c0-.662-.694-1.117-1.334-.97a8.854 8.854 0 0 1-2 .221c-1.278 0-2.445-.254-3.333-.672-.889-.419-2.056-.672-3.334-.672-.71 0-1.387.078-2 .22-.394.09-.59.136-.827.325a1.59 1.59 0 0 0-.377.476c-.129.274-.129.54-.129 1.072v7.242c0 .662.693 1.116 1.333.968.215-.05.438-.091.667-.124m.333-5.18v-.005m8.667 1.344v-.006m-4.333 7V12m-2.667.667v-1.333M10.663 14v-1.333M9.663 7A1.667 1.667 0 1 0 6.33 7a1.667 1.667 0 0 0 3.333 0Z" class="Icon"/>
  </g>
</svg>
