<svg xmlns="http://www.w3.org/2000/svg" width="16" height="16" fill="none" viewBox="0 0 16 16">
  <style>
    .Icon {
      stroke: black;
    }
  </style>
  <g class="Payroll">
    <path stroke="#162A41" stroke-linecap="round" stroke-linejoin="round" d="M13.17 5.692h.5c.552 0 1 .482 1 1.077m-1.5-1.077h-.429c-.591 0-1.071.517-1.071 1.154 0 .637.48 1.154 1.071 1.154h.858c.591 0 1.071.517 1.071 1.154 0 .637-.48 1.154-1.071 1.154h-.429m0-4.616V5m0 5.308h-.5c-.552 0-1-.482-1-1.077m1.5 1.077V11M9.294 5a3 3 0 1 1-6 0 3 3 0 0 1 6 0Zm-7.627 7.626C2.73 11.03 4.407 10 6.294 10c1.887 0 3.564 1.03 4.627 2.626.233.35.35.524.336.747a.74.74 0 0 1-.263.492c-.179.135-.424.135-.915.135H2.51c-.49 0-.736 0-.915-.135a.74.74 0 0 1-.263-.492c-.013-.223.103-.398.336-.747Z" class="Icon"/>
  </g>
</svg>
