<svg xmlns="http://www.w3.org/2000/svg" width="16" height="16" fill="none" viewBox="0 0 16 16">
  <style>
    .Icon {
      stroke: black;
    }
  </style>
  <g class="Pro forma invoice">
    <path stroke="#162A41" stroke-linecap="round" stroke-linejoin="round" d="M9 14.667H7.367c-2.687 0-4.03 0-4.866-.903-.834-.902-.834-2.355-.834-5.26v-.342c0-2.905 0-4.357.834-5.26C3.336 2 4.68 2 7.367 2h1.266c2.687 0 4.03 0 4.866.902.715.773.817 1.95.832 4.098M5 8h4.5M5 10h3.5M5 12h2.5m5-2.638h.5c.552 0 1 .482 1 1.077m-1.5-1.077h-.429c-.591 0-1.071.517-1.071 1.154 0 .637.48 1.154 1.071 1.154h.858c.591 0 1.071.517 1.071 1.154 0 .637-.48 1.154-1.071 1.154H12.5m0-4.616V8.67m0 5.308H12c-.552 0-1-.482-1-1.077m1.5 1.077v.692M12 1.333v1.334M4 1.333v1.334M2 5.333h12" class="Icon"/>
  </g>
</svg>
