<svg xmlns="http://www.w3.org/2000/svg" width="16" height="16" fill="none" viewBox="0 0 16 16">
  <style>
    .Icon {
      stroke: black;
    }
  </style>
  <g class="Sage account export">
    <path stroke="#162A41" stroke-linecap="round" stroke-linejoin="round" d="M2 6.667h12M4.67 4h1.333M14 8.667V7.333c0-.484 0-.927-.004-1.333M2 8.667V7.333c0-2.828 0-4.242.879-5.121.878-.879 2.293-.879 5.121-.879h1.266m2.064.007h1.66a1 1 0 0 1 1 1V4m-.66-2-2 2M4.667 8.5h.35m2.808 0h.35m2.807 0h.351m-8.309 2.17h-.74c-.297 0-.445 0-.562.05-.397.173-.392.58-.392.95s-.005.776.392.95c.117.05.265.05.561.05.296 0 .444 0 .561.05.398.173.392.58.392.95s.006.776-.392.95c-.117.05-.265.05-.56.05h-.808m13.198-4h-.74c-.297 0-.445 0-.562.05-.397.173-.392.58-.392.95s-.005.776.392.95c.117.05.265.05.561.05-.296 0-.444 0-.56.05-.398.173-.393.58-.393.95s-.005.776.392.95c.117.05.265.05.561.05h.741m-7.211 0-.388-1.334m0 0-.704-2.42c-.041-.143-.112-.246-.265-.246-.152 0-.223.103-.265.245L4.75 14.67m2.325-1.334H5.142m6.248-2c-.06-.678-.609-.666-1.187-.666-.567 0-.85 0-1.027.195C9 11.06 9 11.375 9 12.003v1.334c0 .628 0 .942.176 1.138.176.195.46.195 1.027.195s.85 0 1.026-.195c.176-.196.176-.51.176-1.138 0-.47-.902-.334-.902-.334" class="Icon"/>
  </g>
</svg>
