<svg xmlns="http://www.w3.org/2000/svg" width="16" height="16" fill="none" viewBox="0 0 16 16">
  <style>
    .Icon {
      stroke: black;
    }
  </style>
  <g class="Simple wage payment">
    <path stroke="#162A41" stroke-linecap="round" stroke-linejoin="round" d="M4.667 4.447c-.711 0-1.387-.08-2-.223-.64-.15-1.334.31-1.334.982v7.339c0 .539 0 .808.13 1.086.074.159.242.374.376.483.236.191.434.237.828.33a8.845 8.845 0 0 0 2 .223c1.278 0 2.445-.258 3.333-.682.888-.424 2.055-.681 3.333-.681.71 0 1.387.08 2 .223.64.15 1.334-.311 1.334-.982v-7.34c0-.538 0-.808-.13-1.086a1.607 1.607 0 0 0-.376-.483C13.333 2.96 12 3.628 12 3.628M3.667 9.667v.006m8.666-1.345v.006M6.333 3c.328-.337 1.2-1.667 1.667-1.667m0 0c.467 0 1.339 1.33 1.667 1.667M8 1.333v4M9.667 9a1.667 1.667 0 1 1-3.334 0 1.667 1.667 0 0 1 3.334 0Z" class="Icon"/>
  </g>
</svg>
