<svg xmlns="http://www.w3.org/2000/svg" width="16" height="16" fill="none" viewBox="0 0 16 16">
  <style>
    .Icon {
      stroke: black;
    }
  </style>
  <g class="Voucher">
    <path stroke="#162A41" stroke-linecap="round" stroke-linejoin="round" d="m3.042 3.705 1.891 1.628m0 0 2.4 2m-2.4-2-1.93 1.591m1.93-1.59 2.4-2m-2 6.717v-.718m7.898-4.486c.33.093.59.235.805.45.215.216.357.476.45.805m0 6.462c-.093.33-.235.59-.45.805a1.776 1.776 0 0 1-.805.45m-6.462 0a1.776 1.776 0 0 1-.805-.45 1.777 1.777 0 0 1-.45-.805M9.282 14h1.436m3.949-3.949V8.615m-3.95-3.948H9.283M1.333 3a1 1 0 1 0 2 0 1 1 0 0 0-2 0Zm0 4.667a1 1 0 1 0 2 0 1 1 0 0 0-2 0Z" class="Icon"/>
  </g>
</svg>
