<svg xmlns="http://www.w3.org/2000/svg" width="16" height="16" fill="none" viewBox="0 0 16 16">
  <style>
    .Icon {
      stroke: black;
    }
  </style>
  <g class="Discounts">
    <path stroke="#162A41" stroke-linecap="round" stroke-linejoin="round" d="M7.33 6.667h.01m-.007 4h.01m-2.676-2H10m2.667-4.334a1 1 0 1 0-2 0 1 1 0 0 0 2 0ZM1.849 7.43c-.668.747-.683 1.874-.069 2.667a22.67 22.67 0 0 0 4.124 4.124c.793.614 1.92.6 2.667-.07a61.57 61.57 0 0 0 5.677-5.798 1.3 1.3 0 0 0 .313-.73c.11-1.197.336-4.646-.6-5.582-.938-.937-4.386-.71-5.583-.6a1.295 1.295 0 0 0-.73.312A61.568 61.568 0 0 0 1.849 7.43Z" class="Icon"/>
  </g>
</svg>
