<svg xmlns="http://www.w3.org/2000/svg" width="16" height="16" fill="none" viewBox="0 0 16 16">
  <style>
    .Icon {
      stroke: black;
    }
  </style>
  <g class="External product numbers">
    <path stroke="#162A41" stroke-linecap="round" stroke-linejoin="round" d="M2 5.333v3.36c0 2.502 0 3.753.781 4.53C3.562 14 4.819 14 7.333 14h1.334c2.514 0 3.77 0 4.552-.777.781-.777.781-2.028.781-4.53v-3.36M7.222 8H8c.145 0 .217 0 .277.012a.61.61 0 0 1 .489.471c.012.058.012.128.012.267 0 .14 0 .21-.012.267a.611.611 0 0 1-.49.471C8.217 9.5 8.146 9.5 8 9.5c-.145 0-.217 0-.277.012a.611.611 0 0 0-.489.471c-.012.058-.012.128-.012.267v.45c0 .141 0 .212.046.256.045.044.119.044.265.044h1.245M10.5 8h.778c.144 0 .217 0 .277.012a.61.61 0 0 1 .489.471c.011.058.011.128.011.267 0 .14 0 .21-.011.267a.612.612 0 0 1-.49.471c-.06.012-.132.012-.276.012m0 0h-.39m.39 0c.144 0 .217 0 .277.012a.61.61 0 0 1 .489.471c.011.058.011.128.011.267 0 .14 0 .21-.011.267a.612.612 0 0 1-.49.472c-.06.011-.132.011-.276.011H10.5M4 8h.622c.086 0 .156.067.156.15V11m0 0H4m.778 0h.778m7.91-9H2.534c-.5 0-.75 0-.924.118a.67.67 0 0 0-.207.226c-.102.182-.077.428-.027.92.083.82.124 1.23.342 1.524.108.146.246.269.404.36.317.185.735.185 1.57.185h8.614c.835 0 1.253 0 1.57-.184.158-.092.296-.215.404-.361.218-.293.26-.704.342-1.524.05-.492.075-.738-.027-.92a.67.67 0 0 0-.207-.226C14.216 2 13.966 2 13.465 2Z" class="Icon"/>
  </g>
</svg>
