<svg xmlns="http://www.w3.org/2000/svg" width="16" height="16" fill="none" viewBox="0 0 16 16">
  <style>
    .Icon {
      stroke: black;
    }
  </style>
  <g class="Free product">
    <path stroke="#162A41" stroke-linecap="round" stroke-linejoin="round" d="M14 7.014v-1.68m-12 0v1.68M2 9c0 .36.001.692.005 1 .006.367.016.699.035 1M14 9c0 .36-.001.692-.005 1-.006.367-.016.699-.035 1m-.548 2a2.068 2.068 0 0 1-.912.685c-.396.156-.883.234-1.5.274M2.588 13a2.068 2.068 0 0 0 .912.685c.396.156.883.234 1.5.274M9 14H7m-.333-6.666h2.666M2.535 2c-.5 0-.75 0-.924.118a.67.67 0 0 0-.207.226c-.102.182-.077.428-.027.92.083.82.124 1.23.342 1.524.108.146.246.269.404.36.317.185.735.185 1.57.185h8.614c.835 0 1.253 0 1.57-.184.158-.092.296-.215.404-.361.218-.293.26-.704.342-1.524.05-.492.075-.738-.027-.92a.67.67 0 0 0-.207-.226C14.216 2 13.966 2 13.465 2H2.535Z" class="Icon"/>
  </g>
</svg>
