<svg xmlns="http://www.w3.org/2000/svg" width="16" height="16" fill="none" viewBox="0 0 16 16">
  <style>
    .Icon {
      stroke: black;
    }
  </style>
  <g class="Import export center">
    <path stroke="#162A41" stroke-linecap="round" stroke-linejoin="round" d="M5.333 4.667h5.834c1.404 0 2.106 0 2.61.337a2 2 0 0 1 .553.552c.337.504.337 1.206.337 2.61 0 2.341 0 3.512-.562 4.353a3.33 3.33 0 0 1-.92.92c-.84.561-2.01.561-4.352.561H8c-3.143 0-4.714 0-5.69-.976-.977-.977-.977-2.548-.977-5.69V5.295c0-1.21 0-1.816.254-2.27a2 2 0 0 1 .772-.772C2.813 2 3.419 2 4.629 2c.776 0 1.164 0 1.504.127.775.291 1.095.995 1.445 1.695L8 4.667M10 11V7m0 0L8.5 8.42M10 7l1.5 1.42M6 8v4m0 0-1.5-1.42M6 12l1.5-1.42" class="Icon"/>
  </g>
</svg>
