<svg xmlns="http://www.w3.org/2000/svg" width="16" height="16" fill="none" viewBox="0 0 16 16">
  <style>
    .Icon {
      stroke: black;
    }
  </style>
  <g class="Inquiry">
    <path stroke="#162A41" stroke-linecap="round" stroke-linejoin="round" d="M8.333 2.003a22.036 22.036 0 0 0-1.78.044c-2.789.186-5.01 2.439-5.193 5.267a13.166 13.166 0 0 0 0 1.68c.067 1.03.522 1.984 1.059 2.79.311.563.105 1.267-.219 1.881-.234.443-.35.665-.257.825.094.16.304.165.723.175.83.02 1.39-.214 1.833-.542.252-.186.378-.278.465-.29.086-.01.257.06.599.201.307.127.663.205.99.226.95.063 1.943.064 2.894 0 2.789-.185 5.01-2.438 5.193-5.266.028-.437.034-.885.018-1.327M5.667 10h4.666M5.667 6.667H8m2-3h4.667m-2.334-2.334V6" class="Icon"/>
  </g>
</svg>
