<svg xmlns="http://www.w3.org/2000/svg" width="16" height="16" fill="none" viewBox="0 0 16 16">
  <style>
    .Icon {
      stroke: black;
    }
  </style>
  <g class="Matrix product">
    <path stroke="#162A41" stroke-linecap="round" stroke-linejoin="round" d="m8 8.667 3.095 3M8 8.667l-3.095 3m3.095-3V5.333m3.095 6.334c-.095.163-.095.36-.095.757v.485c0 .396 0 .595.095.758.094.163.266.262.61.46l.423.243c.344.198.516.297.705.297.19 0 .362-.1.706-.297l.422-.243c.344-.198.517-.297.611-.46.095-.163.095-.361.095-.758v-.485c0-.396 0-.594-.095-.757-.094-.163-.267-.262-.611-.46l-.422-.243c-.344-.198-.517-.297-.706-.297-.189 0-.361.099-.705.297l-.422.242c-.345.199-.517.298-.611.46Zm-6.19 0c-.094-.163-.266-.262-.61-.46l-.423-.243c-.344-.198-.516-.297-.705-.297-.19 0-.362.099-.706.297l-.422.242c-.344.199-.517.298-.611.46-.095.164-.095.362-.095.758v.485c0 .396 0 .595.095.758.094.163.267.262.611.46l.422.243c.344.198.517.297.706.297.189 0 .36-.1.705-.297l.422-.243c.345-.198.517-.297.611-.46.095-.163.095-.361.095-.758v-.485c0-.396 0-.594-.095-.757ZM8 5.333c.189 0 .361-.099.706-.297l.422-.242c.344-.198.516-.298.61-.46.095-.164.095-.362.095-.758v-.485c0-.396 0-.595-.094-.758-.095-.163-.267-.262-.611-.46l-.422-.243c-.345-.198-.517-.297-.706-.297-.19 0-.361.1-.706.297l-.422.243c-.344.198-.516.297-.61.46-.095.163-.095.362-.095.758v.485c0 .396 0 .594.094.757.095.163.267.263.611.46l.422.243c.345.198.517.297.706.297Z" class="Icon"/>
  </g>
</svg>
