<svg xmlns="http://www.w3.org/2000/svg" width="16" height="16" fill="none" viewBox="0 0 16 16">
  <style>
    .Icon {
      stroke: black;
    }
  </style>
  <g class="Merge orders">
    <path stroke="#162A41" stroke-linecap="round" stroke-linejoin="round" d="M10.358 10.667h.616c1.74 0 2.611 0 3.152-.547.54-.547.54-1.427.54-3.187V5.067c0-1.76 0-2.64-.54-3.187-.541-.547-1.411-.547-3.152-.547h-.616c-1.74 0-2.61 0-3.152.547-.473.478-.532 1.211-.54 2.564M7 2l2.667 2.333m-1 3.167H3.333m5.334 2H3.333M6 11.5H3.333m-2-3.233c0-2.012 0-3.017.631-3.642S3.61 4 5.641 4h.718c2.03 0 3.046 0 3.677.625.63.625.63 1.63.63 3.642V10.4c0 2.011 0 3.017-.63 3.642-.631.625-1.646.625-3.677.625h-.718c-2.03 0-3.046 0-3.677-.625-.63-.625-.63-1.63-.63-3.642V8.267Z" class="Icon"/>
  </g>
</svg>
