<svg xmlns="http://www.w3.org/2000/svg" width="16" height="16" fill="none" viewBox="0 0 16 16">
  <style>
    .Icon {
      stroke: black;
    }
  </style>
  <g class="Order open position">
    <path stroke="#162A41" stroke-linecap="round" stroke-linejoin="round" d="M8 4.923h.667c.736 0 1.333.643 1.333 1.436M8 4.923h-.571C6.639 4.923 6 5.612 6 6.462S6.64 8 7.429 8H8.57C9.361 8 10 8.69 10 9.54s-.64 1.538-1.429 1.538H8m0-6.154V4m0 7.077h-.667C6.597 11.077 6 10.434 6 9.641m2 1.436V12m6.37-10.36L12 4m2.37-2.36s-.16-.3-.71-.3H12m2.37.3s.29.15.29.7V4M10 1.34l-2.005-.01c-3.142 0-4.713 0-5.689.976S1.33 4.853 1.33 7.995s0 4.713.976 5.689 2.547.976 5.689.976 4.713 0 5.689-.976.976-2.547.976-5.689V6" class="Icon"/>
  </g>
</svg>
