<svg xmlns="http://www.w3.org/2000/svg" width="16" height="16" fill="none" viewBox="0 0 16 16">
  <style>
    .Icon {
      stroke: black;
    }
  </style>
  <g class="POS">
    <path stroke="#162A41" stroke-linecap="round" stroke-linejoin="round" d="M1.667 11.667c0 1.257 0 1.885.39 2.276.39.39 1.02.39 2.276.39h7.334c1.257 0 1.885 0 2.276-.39.39-.39.39-1.02.39-2.276m-12.666 0h12.666m-12.666 0 .869-3.912c.222-1.001.334-1.502.7-1.795.365-.293.878-.293 1.903-.293h5.722c1.025 0 1.538 0 1.904.293.365.293.477.794.7 1.795l.868 3.912M6.667 13h2.666M11 3.667v2m-6 2h.333m2.5 0h.334m2.5 0H11m-6 2h.333m2.5 0h.334m2.5 0H11m-1-6h2c.31 0 .466 0 .588-.051a.667.667 0 0 0 .361-.36c.051-.123.051-.279.051-.59 0-.31 0-.465-.05-.588a.667.667 0 0 0-.361-.36c-.123-.051-.278-.051-.589-.051h-2c-.31 0-.466 0-.588.05a.667.667 0 0 0-.361.361C9 2.201 9 2.356 9 2.667c0 .31 0 .466.05.588a.667.667 0 0 0 .362.361c.122.05.277.05.588.05Z" class="Icon"/>
  </g>
</svg>
