<svg xmlns="http://www.w3.org/2000/svg" width="16" height="16" fill="none" viewBox="0 0 16 16">
  <style>
    .Icon {
      stroke: black;
    }
  </style>
  <g class="Product categories">
    <path stroke="#162A41" stroke-linecap="round" stroke-linejoin="round" d="M3.333 10.667a2 2 0 1 0 0 4 2 2 0 0 0 0-4Zm0 0c.105-1.636.688-2 2.659-2h4.016c1.971 0 2.554.364 2.659 2m0 0a2 2 0 1 0 0 4 2 2 0 0 0 0-4ZM8 6.667h.375c1.053 0 1.58 0 1.958-.25a1.48 1.48 0 0 0 .414-.409C11 5.635 11 5.114 11 4.074c0-.624 0-.936-.152-1.16a.896.896 0 0 0-.248-.246c-.227-.15-.543-.15-1.175-.15h-.997c-.086 0-.13 0-.17-.005a.547.547 0 0 1-.367-.224 1.19 1.19 0 0 1-.081-.146c-.157-.31-.301-.624-.65-.753-.153-.057-.328-.057-.677-.057-.545 0-.817 0-1.022.113a.895.895 0 0 0-.347.343C5 1.991 5 2.26 5 2.8v.905c0 1.397 0 2.095.44 2.529.439.434 1.146.434 2.56.434Z" class="Icon"/>
  </g>
</svg>
