<svg xmlns="http://www.w3.org/2000/svg" width="16" height="16" fill="none" viewBox="0 0 16 16">
  <style>
    .Icon {
      stroke: black;
    }
  </style>
  <g class="Product tree">
    <path stroke="#162A41" stroke-linejoin="round" d="M8 5.333a2 2 0 1 0 0-4 2 2 0 0 0 0 4Zm0 0V6m0 0c0 .621 0 .932.118 1.177.158.327.461.586.842.722C9.246 8 9.61 8 10.333 8c.725 0 1.088 0 1.373.102.382.135.684.394.842.721.119.245.119.556.119 1.177v.667M8 6c0 .621 0 .932-.118 1.177-.158.327-.461.586-.842.722C6.754 8 6.39 8 5.667 8c-.725 0-1.088 0-1.373.102a1.464 1.464 0 0 0-.842.721c-.119.245-.119.556-.119 1.177v.667m9.334 0a2 2 0 1 0 0 4 2 2 0 0 0 0-4Zm-9.334 0a2 2 0 1 0 0 4 2 2 0 0 0 0-4Z" class="Icon"/>
  </g>
</svg>
