<svg xmlns="http://www.w3.org/2000/svg" width="16" height="16" fill="none" viewBox="0 0 16 16">
  <style>
    .Icon {
      stroke: black;
    }
  </style>
  <g class="Properties template">
    <path stroke="#162A41" stroke-linecap="round" stroke-linejoin="round" d="M3.998 1.507c-.73.135-1.267.375-1.691.8-.425.424-.665.961-.8 1.691m10.495-2.491c.73.135 1.267.375 1.691.8.425.424.665.961.8 1.691M9.334 1.334C8.924 1.33 8.48 1.33 8 1.33c-.48 0-.924 0-1.334.004m8 5.332c.004.41.004.854.004 1.334 0 .48 0 .924-.004 1.334M1.333 6.666C1.33 7.076 1.33 7.52 1.33 8c0 .48 0 .924.003 1.334m.174 2.668c.135.73.375 1.267.8 1.691.424.425.961.665 1.691.8m10.495-2.49c-.135.729-.375 1.266-.8 1.69-.424.425-.961.665-1.691.8m-2.668.174c-.41.003-.854.003-1.334.003-.48 0-.924 0-1.334-.003m0-8.667a1 1 0 1 0-2 0 1 1 0 0 0 2 0Zm0 0h4.667m-2 4a1 1 0 1 1 2 0 1 1 0 0 1-2 0Zm0 0H4.667" class="Icon"/>
  </g>
</svg>
