<svg xmlns="http://www.w3.org/2000/svg" width="16" height="16" fill="none" viewBox="0 0 16 16">
  <style>
    .Icon {
      stroke: black;
    }
  </style>
  <g class="Sales Orders">
    <path stroke="#162A41" stroke-linecap="round" stroke-linejoin="round" d="M13.17 9.362h.5c.552 0 1 .482 1 1.077m-1.5-1.077h-.429c-.591 0-1.071.517-1.071 1.154 0 .637.48 1.154 1.071 1.154h.858c.591 0 1.071.517 1.071 1.154 0 .637-.48 1.154-1.071 1.154h-.429m0-4.616V8.67m0 5.308h-.5c-.552 0-1-.482-1-1.077m1.5 1.077v.692M9.987 6h-5.32m3.657 2H4.667m1.662 2H4.667m8.663-3.333c0-2.515 0-3.772-.827-4.553-.827-.78-2.158-.78-4.82-.78h-.706c-2.662 0-3.993 0-4.82.78-.827.781-.827 2.038-.827 4.553v2.666c0 2.514 0 3.771.827 4.553.827.78 2.158.78 4.82.78h.353m-5.173-.777c.827.781 2.158.781 4.82.781h.706c.618 0 1.165 0 1.65-.01" class="Icon"/>
  </g>
</svg>
