<svg xmlns="http://www.w3.org/2000/svg" width="16" height="16" fill="none" viewBox="0 0 16 16">
  <style>
    .Icon {
      stroke: black;
    }
  </style>
  <g class="Sales figures">
    <path stroke="#162A41" stroke-linecap="round" stroke-linejoin="round" d="M2.5 2.692H3c.552 0 1 .482 1 1.077M2.5 2.692h-.429C1.48 2.692 1 3.21 1 3.846 1 4.483 1.48 5 2.071 5h.858C3.52 5 4 5.517 4 6.154c0 .637-.48 1.154-1.071 1.154H2.5m0-4.616V2m0 5.308H2c-.552 0-1-.482-1-1.077m1.5 1.077V8m7-4.085a1.5 1.5 0 1 0-1 0m1 0a1.498 1.498 0 0 1-1 0m1 0 2 4.17m0 0a1.5 1.5 0 1 0 1.78.632m-1.78-.632a1.5 1.5 0 0 1 1.78.632M8.5 3.915l-2 8.17m0 0a1.5 1.5 0 0 0-1.772.62m1.772-.62a1.5 1.5 0 1 1-1.772.62m8.552-3.988L15 8M4.727 12.705 1 10.5" class="Icon"/>
  </g>
</svg>
