<svg xmlns="http://www.w3.org/2000/svg" width="16" height="16" fill="none" viewBox="0 0 16 16">
  <style>
    .Icon {
      stroke: black;
    }
  </style>
  <g class="Sales Orders Multi">
    <path stroke="#162A41" stroke-linecap="round" stroke-linejoin="round" d="M3.869 6.208c.062 0 .426 0 .451.012.023.01.041.027.055.049.015.024.019.056.028.12l.12.87m0 0 .268 2.029c.034.257.051.386.11.483a.514.514 0 0 0 .218.196c.101.048.227.048.48.048h2.178c.24 0 .36 0 .457-.045a.513.513 0 0 0 .215-.183c.06-.09.083-.212.128-.455l.337-1.824c.015-.086.023-.129.012-.162a.13.13 0 0 0-.056-.07c-.03-.018-.072-.018-.156-.018h-4.19Zm6.677 5.408c.98 0 1.47 0 1.845-.191a1.75 1.75 0 0 0 .764-.765c.191-.374.191-.864.191-1.844V4.785c0-.428 0-.642-.048-.844a1.75 1.75 0 0 0-.21-.505c-.108-.177-.26-.328-.562-.631l-.985-.985c-.303-.303-.454-.454-.63-.562a1.763 1.763 0 0 0-.506-.21C10.857 1 10.643 1 10.215 1H7.467c-.98 0-1.47 0-1.845.19-.33.169-.695.63-.695 1.615M8.2 14.667H4.6c-.945 0-1.418 0-1.779-.191a1.72 1.72 0 0 1-.737-.765c-.184-.374-.184-.864-.184-1.844V5.8c0-.98 0-1.47.184-1.844.162-.33.42-.597.737-.765C3.182 3 3.655 3 4.6 3h2.65c.413 0 .62 0 .814.048a1.647 1.647 0 0 1 .488.21c.17.108.316.26.608.562l.95.985c.291.303.437.454.541.63a1.787 1.787 0 0 1 .202.506c.047.202.047.416.047.844v5.082c0 .98 0 1.47-.184 1.844a1.72 1.72 0 0 1-.737.765c-.361.19-.834.19-1.779.19Zm-2.295-3.471a.259.259 0 0 1-.254.262.259.259 0 0 1-.255-.262.26.26 0 0 1 .255-.263c.14 0 .254.118.254.263Zm2.036 0a.259.259 0 0 1-.254.262.259.259 0 0 1-.255-.262.26.26 0 0 1 .255-.263c.14 0 .254.118.254.263Z" class="Vector"/>
  </g>
</svg>
