<svg xmlns="http://www.w3.org/2000/svg" width="16" height="16" fill="none" viewBox="0 0 16 16">
  <style>
    .Icon {
      stroke: black;
    }
  </style>
  <g class="Service order">
    <path stroke="#162A41" stroke-linecap="round" stroke-linejoin="round" d="M7.686 14.667H6.98c-2.662 0-3.993 0-4.82-.781-.827-.781-.827-2.038-.827-4.553V6.667c0-2.514 0-3.772.827-4.553.827-.78 2.158-.78 4.82-.78h.706c2.662 0 3.993 0 4.82.78.827.781.827 2.039.827 4.553V7m-3.33-1H4.67m3.667 2H4.67m1.667 2H4.67M12 13.81v.857m0-.857a2.25 2.25 0 0 1-1.85-.954m1.85.954c.771 0 1.45-.38 1.85-.954m-3.7 0-.816.525m.817-.525a2.08 2.08 0 0 1 0-2.378m3.698 2.378.817.525m-.817-.525a2.08 2.08 0 0 0 0-2.378M12 9.524c.771 0 1.45.379 1.85.954M12 9.524c-.771 0-1.45.379-1.85.954M12 9.524v-.857m1.85 1.811.817-.526m-4.516.526-.818-.526" class="Icon"/>
  </g>
</svg>
