<svg xmlns="http://www.w3.org/2000/svg" width="16" height="16" fill="none" viewBox="0 0 16 16">
  <style>
    .Icon {
      stroke: black;
    }
  </style>
  <g class="Service order scan">
    <path stroke="#162A41" stroke-linecap="round" stroke-linejoin="round" d="M6.09 1.67c-1.78.04-2.82.21-3.53.91-.62.62-.82 1.49-.89 2.89m8.24-3.8c1.78.04 2.82.21 3.53.91.62.62.82 1.49.89 2.89m-8.24 8.86c-1.78-.04-2.82-.21-3.53-.91-.62-.62-.82-1.49-.89-2.89m-.08-2.28v-.5m12.8.5v-.5M10.667 6H5.333M9 8H5.333M7 10H5.333m6.832 4.286V15m0-.714a1.807 1.807 0 0 1-1.501-.795m1.501.795c.626 0 1.178-.316 1.501-.795m-3.002 0-.664.438m.664-.438a1.765 1.765 0 0 1 0-1.982m3.002 1.982.664.438m-.664-.438c.192-.284.303-.624.303-.991s-.111-.707-.303-.99m-1.501-.796c.626 0 1.178.316 1.501.795m-1.501-.795c-.626 0-1.178.316-1.501.795m1.501-.795V10m1.501 1.51.664-.439m-3.666.438L10 11.071" class="Icon"/>
  </g>
</svg>
